<mxfile host="app.diagrams.net" modified="2021-12-14T08:36:16.460Z" agent="5.0 (Windows)" etag="a_wNJsbI47qfTjbFa4ua" version="15.9.4" type="github">
  <diagram id="cmkn4S1Rbx06rcbAceC7" name="Page-1">
    <mxGraphModel dx="1038" dy="536" grid="1" gridSize="10" guides="1" tooltips="1" connect="1" arrows="1" fold="1" page="1" pageScale="1" pageWidth="827" pageHeight="1169" math="0" shadow="0">
      <root>
        <mxCell id="0" />
        <mxCell id="1" parent="0" />
        <mxCell id="IUKcMEqX_fqQCCb-X-kh-124" value="" style="edgeStyle=orthogonalEdgeStyle;rounded=0;orthogonalLoop=1;jettySize=auto;html=1;" edge="1" parent="1" source="IUKcMEqX_fqQCCb-X-kh-1" target="IUKcMEqX_fqQCCb-X-kh-123">
          <mxGeometry relative="1" as="geometry" />
        </mxCell>
        <mxCell id="IUKcMEqX_fqQCCb-X-kh-1" value="开始" style="ellipse;whiteSpace=wrap;html=1;" vertex="1" parent="1">
          <mxGeometry x="310" y="40" width="120" height="80" as="geometry" />
        </mxCell>
        <mxCell id="IUKcMEqX_fqQCCb-X-kh-156" value="" style="edgeStyle=orthogonalEdgeStyle;rounded=0;orthogonalLoop=1;jettySize=auto;html=1;" edge="1" parent="1" source="IUKcMEqX_fqQCCb-X-kh-123" target="IUKcMEqX_fqQCCb-X-kh-155">
          <mxGeometry relative="1" as="geometry" />
        </mxCell>
        <mxCell id="IUKcMEqX_fqQCCb-X-kh-123" value="传入参数" style="whiteSpace=wrap;html=1;" vertex="1" parent="1">
          <mxGeometry x="310" y="150" width="120" height="60" as="geometry" />
        </mxCell>
        <mxCell id="IUKcMEqX_fqQCCb-X-kh-176" value="" style="edgeStyle=orthogonalEdgeStyle;rounded=0;orthogonalLoop=1;jettySize=auto;html=1;" edge="1" parent="1" source="IUKcMEqX_fqQCCb-X-kh-155">
          <mxGeometry relative="1" as="geometry">
            <mxPoint x="370" y="330" as="targetPoint" />
          </mxGeometry>
        </mxCell>
        <mxCell id="IUKcMEqX_fqQCCb-X-kh-155" value="&lt;div&gt;计算请求队列的长度&lt;/div&gt;&lt;div&gt;设置变量记录总长&lt;br&gt;&lt;/div&gt;" style="whiteSpace=wrap;html=1;" vertex="1" parent="1">
          <mxGeometry x="310" y="240" width="120" height="60" as="geometry" />
        </mxCell>
        <mxCell id="IUKcMEqX_fqQCCb-X-kh-198" value="" style="edgeStyle=orthogonalEdgeStyle;rounded=0;orthogonalLoop=1;jettySize=auto;html=1;" edge="1" parent="1" source="IUKcMEqX_fqQCCb-X-kh-196" target="IUKcMEqX_fqQCCb-X-kh-197">
          <mxGeometry relative="1" as="geometry" />
        </mxCell>
        <mxCell id="IUKcMEqX_fqQCCb-X-kh-196" value="&lt;div&gt;mark记录开始位置&lt;/div&gt;&lt;div&gt;work记录工作顺序&lt;br&gt;&lt;/div&gt;" style="rounded=0;whiteSpace=wrap;html=1;" vertex="1" parent="1">
          <mxGeometry x="310" y="330" width="120" height="60" as="geometry" />
        </mxCell>
        <mxCell id="IUKcMEqX_fqQCCb-X-kh-200" value="" style="edgeStyle=orthogonalEdgeStyle;rounded=0;orthogonalLoop=1;jettySize=auto;html=1;" edge="1" parent="1" source="IUKcMEqX_fqQCCb-X-kh-197" target="IUKcMEqX_fqQCCb-X-kh-199">
          <mxGeometry relative="1" as="geometry" />
        </mxCell>
        <mxCell id="IUKcMEqX_fqQCCb-X-kh-197" value="req排序" style="whiteSpace=wrap;html=1;rounded=0;" vertex="1" parent="1">
          <mxGeometry x="310" y="420" width="120" height="60" as="geometry" />
        </mxCell>
        <mxCell id="IUKcMEqX_fqQCCb-X-kh-202" value="" style="edgeStyle=orthogonalEdgeStyle;rounded=0;orthogonalLoop=1;jettySize=auto;html=1;" edge="1" parent="1" source="IUKcMEqX_fqQCCb-X-kh-199" target="IUKcMEqX_fqQCCb-X-kh-201">
          <mxGeometry relative="1" as="geometry" />
        </mxCell>
        <mxCell id="IUKcMEqX_fqQCCb-X-kh-199" value="&lt;div&gt;规定先上后下&lt;/div&gt;&lt;div&gt;确定起始位置mark&lt;br&gt;&lt;/div&gt;" style="whiteSpace=wrap;html=1;rounded=0;" vertex="1" parent="1">
          <mxGeometry x="310" y="510" width="120" height="60" as="geometry" />
        </mxCell>
        <mxCell id="IUKcMEqX_fqQCCb-X-kh-204" value="" style="edgeStyle=orthogonalEdgeStyle;rounded=0;orthogonalLoop=1;jettySize=auto;html=1;" edge="1" parent="1" source="IUKcMEqX_fqQCCb-X-kh-201" target="IUKcMEqX_fqQCCb-X-kh-203">
          <mxGeometry relative="1" as="geometry" />
        </mxCell>
        <mxCell id="IUKcMEqX_fqQCCb-X-kh-201" value="&lt;div&gt;设置工作队列&lt;/div&gt;&lt;div&gt;记录工作顺序&lt;br&gt;&lt;/div&gt;" style="whiteSpace=wrap;html=1;rounded=0;" vertex="1" parent="1">
          <mxGeometry x="310" y="600" width="120" height="60" as="geometry" />
        </mxCell>
        <mxCell id="IUKcMEqX_fqQCCb-X-kh-206" value="" style="edgeStyle=orthogonalEdgeStyle;rounded=0;orthogonalLoop=1;jettySize=auto;html=1;" edge="1" parent="1" source="IUKcMEqX_fqQCCb-X-kh-203" target="IUKcMEqX_fqQCCb-X-kh-205">
          <mxGeometry relative="1" as="geometry" />
        </mxCell>
        <mxCell id="IUKcMEqX_fqQCCb-X-kh-203" value="计算总的移动距离" style="whiteSpace=wrap;html=1;rounded=0;" vertex="1" parent="1">
          <mxGeometry x="310" y="690" width="120" height="60" as="geometry" />
        </mxCell>
        <mxCell id="IUKcMEqX_fqQCCb-X-kh-208" value="" style="edgeStyle=orthogonalEdgeStyle;rounded=0;orthogonalLoop=1;jettySize=auto;html=1;" edge="1" parent="1" source="IUKcMEqX_fqQCCb-X-kh-205" target="IUKcMEqX_fqQCCb-X-kh-207">
          <mxGeometry relative="1" as="geometry" />
        </mxCell>
        <mxCell id="IUKcMEqX_fqQCCb-X-kh-205" value="计算sum/num" style="whiteSpace=wrap;html=1;rounded=0;" vertex="1" parent="1">
          <mxGeometry x="310" y="780" width="120" height="60" as="geometry" />
        </mxCell>
        <mxCell id="IUKcMEqX_fqQCCb-X-kh-207" value="结束" style="ellipse;whiteSpace=wrap;html=1;rounded=0;" vertex="1" parent="1">
          <mxGeometry x="310" y="870" width="120" height="60" as="geometry" />
        </mxCell>
      </root>
    </mxGraphModel>
  </diagram>
</mxfile>
